# xmcd
#
# Track frame offsets: 
#        150
#        14440
#        33661
#        47163
#        84042
#        101170
#        120579
#        130874
#        148790
#        169062
#        183009
#        198916
#
# Disc length: 2888 seconds
#
# Revision: 8
# Processed by: cddbd v1.5.2PL0 Copyright (c) Steve Scherf et al.
# Submitted via: ExactAudioCopy v1.3
#
DISCID=9b0b460c
DTITLE=Leaf Hound - Growers Of Mushroom
DYEAR=1971
DGENRE=Hard Rock
TTITLE0=Freelance Fiend
TTITLE1=Sad Road To The Sea
TTITLE2=Drowned My Life In Fear
TTITLE3=Work My Body
TTITLE4=Stray
TTITLE5=With A Minute To Go
TTITLE6=Growers Of Mushroom
TTITLE7=Stagnant Pool
TTITLE8=Sawdust Caesar
TTITLE9=It's Gonna Get Better (single b-side)
TTITLE10=Hipshaker (unreleased)
TTITLE11=Too Many Rock 'N Roll Times (new recording)
EXTD=
EXTT0=
EXTT1=
EXTT2=
EXTT3=
EXTT4=
EXTT5=
EXTT6=
EXTT7=
EXTT8=
EXTT9=
EXTT10=
EXTT11=
PLAYORDER=
